<?xml version="1.0" standalone="no"?>
<!DOCTYPE svg PUBLIC "-//W3C//DTD SVG 20010904//EN"
 "http://www.w3.org/TR/2001/REC-SVG-20010904/DTD/svg10.dtd">
<svg version="1.0" xmlns="http://www.w3.org/2000/svg"
 width="3887.000000pt" height="3884.000000pt" viewBox="0 0 3887.000000 3884.000000"
 preserveAspectRatio="xMidYMid meet">

<g transform="translate(0.000000,3884.000000) scale(0.100000,-0.100000)"
fill="#000000" stroke="none">
<path d="M18920 37594 c-984 -38 -1688 -108 -2535 -250 -3307 -556 -6409
-2034 -8940 -4259 -575 -505 -1165 -1095 -1670 -1670 -2646 -3010 -4215 -6785
-4480 -10780 -47 -718 -49 -1608 -5 -2345 117 -1928 548 -3846 1270 -5645
1291 -3220 3497 -6018 6343 -8046 1434 -1022 3027 -1837 4697 -2404 1430 -485
2925 -789 4440 -904 523 -40 711 -46 1395 -46 658 0 826 5 1315 41 3021 217
5907 1172 8460 2799 876 558 1706 1196 2515 1934 226 206 922 902 1121 1121
1398 1540 2480 3210 3286 5070 1578 3643 1911 7749 942 11630 -877 3514 -2775
6660 -5499 9115 -2031 1830 -4516 3203 -7159 3955 -1328 377 -2615 588 -4091
670 -183 11 -1231 21 -1405 14z m1175 -374 c1293 -50 2489 -221 3715 -530
2754 -695 5320 -2056 7460 -3958 532 -473 1103 -1049 1566 -1578 2132 -2437
3548 -5364 4123 -8524 293 -1610 365 -3282 211 -4905 -253 -2667 -1098 -5221
-2485 -7515 -1252 -2069 -2933 -3885 -4898 -5289 -2614 -1867 -5651 -2983
-8847 -3250 -871 -73 -1830 -82 -2685 -26 -3369 224 -6562 1380 -9295 3368
-1052 765 -2059 1685 -2921 2667 -1181 1348 -2164 2882 -2883 4503 -775 1746
-1256 3569 -1445 5477 -93 929 -111 1972 -51 2915 178 2803 1023 5527 2463
7945 1039 1744 2375 3307 3937 4604 1968 1636 4243 2819 6700 3486 1336 363
2697 565 4125 613 225 8 982 6 1210 -3z"/>
<path d="M20130 36232 c0 -6 -52 -538 -115 -1183 -63 -645 -112 -1175 -109
-1179 8 -8 428 -48 435 -41 4 3 40 349 80 768 41 419 77 759 81 755 4 -4 185
-369 402 -811 218 -442 398 -806 400 -808 3 -3 336 -38 436 -45 l44 -3 116
1185 c74 758 112 1186 105 1187 -26 6 -428 43 -432 40 -2 -2 -37 -348 -78
-768 -41 -420 -76 -773 -78 -784 -4 -21 -103 179 -561 1121 l-258 530 -186 18
c-103 10 -208 20 -234 23 -31 4 -48 2 -48 -5z"/>
<path d="M18031 36179 c-272 -16 -496 -30 -498 -33 -5 -4 126 -2369 132 -2374
2 -2 110 2 239 9 l236 12 0 26 c0 14 -11 222 -25 461 -14 239 -25 451 -25 471
l0 37 103 6 c120 8 231 -5 289 -35 90 -46 149 -115 515 -599 l230 -305 281 15
c154 8 283 17 285 20 7 6 -382 556 -473 670 -108 134 -203 220 -322 291 -32
18 -58 36 -58 39 0 3 32 14 71 24 39 10 113 39 163 64 244 121 369 365 336
652 -32 282 -195 484 -447 552 -126 34 -430 33 -1032 -3z m827 -399 c69 -30
127 -96 148 -168 24 -82 15 -184 -22 -252 -50 -92 -122 -129 -294 -150 -125
-14 -611 -42 -619 -35 -7 7 -41 588 -35 594 4 4 156 14 524 34 150 8 242 1
298 -23z"/>
<path d="M16016 35881 c-467 -97 -851 -181 -853 -187 -4 -11 474 -2314 481
-2322 4 -3 1759 355 1773 362 1 1 -17 90 -40 199 -33 163 -43 196 -56 193 -49
-14 -1284 -267 -1287 -263 -9 9 -132 623 -126 628 4 4 264 59 577 124 314 64
573 121 578 124 7 7 -65 376 -75 386 -2 2 -264 -50 -582 -116 -318 -66 -582
-117 -586 -112 -7 8 -112 505 -108 508 2 1 282 59 623 130 341 70 623 130 627
134 4 3 -11 91 -33 195 -21 104 -39 190 -39 192 0 7 -33 1 -874 -175z"/>
<path d="M22635 34730 c-407 -566 -741 -1033 -742 -1037 -3 -8 486 -138 491
-131 2 2 74 108 161 236 88 127 163 232 168 232 10 0 911 -231 914 -234 2 -1
17 -126 33 -277 17 -151 35 -280 39 -288 7 -13 490 -145 499 -136 6 6 -320
2529 -328 2538 -7 8 -461 127 -483 127 -7 0 -345 -464 -752 -1030z m898 -45
c25 -247 44 -451 42 -454 -8 -7 -615 152 -615 161 0 17 514 758 521 750 3 -4
27 -209 52 -457z"/>
<path d="M13795 35258 c-478 -170 -873 -313 -878 -317 -5 -5 116 -367 126
-378 1 0 151 52 332 117 182 65 333 115 336 111 3 -3 153 -422 334 -931 180
-509 329 -926 329 -927 1 -1 104 35 229 79 186 67 227 84 222 97 -53 132 -654
1838 -651 1846 2 6 147 62 322 124 176 62 322 116 325 119 4 4 -23 89 -59 190
-48 134 -69 182 -81 181 -9 0 -407 -140 -886 -311z"/>
<path d="M24707 35202 c-41 -103 -72 -188 -69 -190 4 -2 151 -60 327 -131 230
-91 319 -131 317 -142 -2 -8 -165 -421 -363 -918 -198 -497 -356 -908 -352
-912 4 -4 105 -46 223 -92 208 -82 215 -84 223 -63 21 55 721 1811 723 1815 1
1 146 -54 321 -123 176 -69 324 -126 329 -126 8 0 101 219 149 351 5 14 -134
73 -842 355 -466 185 -862 343 -880 350 l-31 13 -75 -187z"/>
<path d="M12235 34628 c-104 -55 -191 -102 -193 -103 -2 -2 592 -1136 699
-1333 l40 -73 -28 15 c-15 8 -377 221 -803 475 l-775 460 -125 -66 c-69 -36
-162 -86 -208 -110 l-83 -45 34 -62 c18 -33 269 -508 557 -1053 l523 -993 177
93 c97 50 186 99 197 107 20 15 11 33 -338 694 -198 373 -358 680 -357 681 2
2 354 -204 783 -456 429 -253 784 -458 790 -457 5 2 103 52 218 112 l207 109
-23 41 c-13 22 -264 497 -557 1054 -294 556 -536 1012 -539 1012 -3 0 -91 -46
-196 -102z"/>
<path d="M26435 33633 c-241 -472 -485 -948 -541 -1058 l-103 -200 214 -110
c117 -60 215 -108 218 -105 21 25 1077 2112 1072 2120 -7 11 -398 210 -413
210 -5 0 -206 -386 -447 -857z"/>
<path d="M27981 33689 c-194 -23 -396 -106 -558 -230 -122 -95 -285 -289 -390
-468 -232 -393 -261 -775 -83 -1120 135 -263 419 -499 734 -610 281 -99 587
-76 845 65 306 167 604 568 713 959 19 69 22 105 22 265 0 172 -2 191 -27 275
-38 126 -116 276 -193 373 -203 254 -560 457 -863 492 -95 11 -96 11 -200 -1z
m322 -465 c79 -20 165 -64 250 -127 270 -199 322 -534 135 -877 -151 -277
-353 -477 -548 -540 -64 -21 -93 -25 -195 -24 -103 0 -129 4 -187 26 -104 39
-176 86 -258 168 -87 86 -141 179 -166 286 -22 95 -15 263 16 359 91 285 355
613 564 700 110 46 276 59 389 29z"/>
<path d="M10090 33394 c-102 -69 -189 -129 -193 -133 -8 -8 1308 -1981 1321
-1981 14 0 392 256 392 265 0 15 -1313 1968 -1325 1971 -5 2 -93 -53 -195
-122z"/>
<path d="M8700 32381 c-107 -98 -196 -184 -198 -190 -2 -6 47 -245 109 -531
62 -286 110 -522 107 -525 -3 -4 -239 64 -523 150 -511 154 -518 156 -539 137
-11 -10 -105 -96 -208 -190 l-187 -171 32 -10 c18 -5 358 -98 757 -206 399
-108 739 -201 757 -206 23 -8 121 -107 369 -379 l338 -368 41 36 c23 21 103
93 178 162 l136 125 -28 30 c-15 16 -153 167 -306 335 -153 168 -293 321 -310
340 l-33 35 -143 803 c-79 441 -146 802 -149 802 -3 0 -93 -81 -200 -179z"/>
<path d="M29329 31550 c-442 -479 -805 -874 -807 -878 -2 -7 311 -302 322
-302 2 0 239 254 527 565 287 311 523 564 524 563 2 -2 -75 -403 -171 -893
l-173 -890 32 -31 c97 -95 318 -294 324 -293 12 1 1608 1734 1608 1746 0 8
-310 303 -319 303 -1 0 -242 -261 -536 -579 -294 -319 -536 -578 -538 -576 -2
2 75 401 172 887 96 485 176 895 178 909 3 22 -19 46 -148 165 -83 76 -160
147 -171 157 -20 17 -32 5 -824 -853z"/>
<path d="M6504 30159 c-329 -397 -599 -724 -599 -729 0 -4 45 -45 100 -90 55
-46 123 -103 151 -127 l52 -43 222 267 c122 148 225 269 229 271 3 1 348 -282
765 -628 618 -513 762 -629 772 -618 31 32 294 353 293 358 0 3 -342 288 -759
634 -417 346 -756 634 -753 640 8 11 395 479 425 512 l19 21 -146 122 c-80 67
-151 124 -158 127 -8 3 -241 -269 -613 -717z"/>
<path d="M31215 29706 c-660 -205 -1206 -374 -1213 -377 -9 -3 41 -72 137
-194 83 -105 157 -194 164 -198 7 -5 123 29 281 82 148 50 270 90 271 88 1 -1
133 -167 293 -370 161 -202 292 -371 292 -376 0 -7 -198 -348 -271 -467 l-19
-31 164 -206 163 -206 637 1115 c400 701 633 1120 629 1128 -27 44 -308 386
-317 385 -6 0 -551 -168 -1211 -373z m932 -173 c-32 -57 -480 -793 -483 -793
-6 0 -394 490 -394 498 0 5 841 295 873 301 5 0 6 -2 4 -6z"/>
<path d="M5561 28914 c-111 -164 -131 -198 -120 -209 17 -16 1930 -1326 1945
-1332 11 -4 274 368 274 387 0 7 -1954 1351 -1962 1350 -2 0 -63 -89 -137
-196z"/>
<path d="M32533 27942 l-1021 -597 24 -40 c13 -22 203 -347 421 -722 219 -375
401 -682 405 -683 3 0 81 44 173 97 121 70 165 101 162 112 -2 9 -135 240
-296 515 -160 274 -290 502 -289 507 2 5 381 229 843 499 461 270 840 492 841
493 3 2 -230 404 -238 412 -2 3 -463 -264 -1025 -593z"/>
<path d="M5244 27990 c-299 -78 -543 -318 -683 -672 -133 -338 -84 -714 131
-999 194 -258 550 -484 908 -576 94 -25 122 -27 270 -27 136 0 179 4 242 22
322 88 545 273 696 577 98 197 127 325 119 521 -6 149 -25 222 -93 354 -51 99
-120 193 -198 269 l-55 54 -175 -169 -175 -169 68 -70 c119 -123 174 -227 187
-359 19 -186 -108 -412 -282 -503 -194 -102 -404 -82 -710 67 -309 150 -502
329 -562 520 -27 87 -22 246 10 332 72 191 212 323 379 359 51 11 208 8 239
-5 14 -6 33 57 137 452 4 17 -3 21 -72 31 -117 17 -297 13 -381 -9z"/>
<path d="M34353 25605 c-708 -245 -790 -276 -941 -346 -235 -110 -352 -225
-422 -418 -75 -207 -63 -409 45 -721 105 -304 247 -495 440 -590 105 -52 179
-70 291 -70 187 0 301 33 1191 341 367 127 669 232 671 233 2 3 -147 445 -153
453 0 1 -320 -108 -711 -243 -784 -272 -906 -308 -1000 -301 -126 9 -228 83
-296 212 -58 111 -83 205 -82 310 0 117 26 184 99 264 91 97 93 98 1058 432
339 118 617 219 617 225 0 21 -148 438 -156 440 -5 2 -298 -98 -651 -221z"/>
<path d="M3489 24790 l-66 -230 66 -20 c36 -10 236 -69 444 -129 208 -60 381
-112 384 -114 5 -5 -243 -872 -255 -893 -5 -8 -148 30 -451 118 -244 71 -447
125 -451 121 -15 -17 -132 -445 -124 -452 13 -11 2274 -665 2279 -659 7 7 135
452 131 455 -2 2 -223 67 -492 145 -269 78 -492 144 -496 147 -7 6 243 886
256 898 3 3 229 -58 501 -137 272 -79 497 -142 499 -139 4 4 134 453 132 456
-1 2 -2232 649 -2270 659 -19 5 -26 -12 -87 -226z"/>
<path d="M26017 24783 l-959 -3 6 -2968 c3 -1632 9 -4461 12 -6288 l6 -3321
-3219 -6 c-1770 -4 -4320 -8 -5668 -9 l-2450 -3 -3 1255 c-1 690 -6 3519 -10
6287 -4 2767 -9 5033 -12 5035 -3 2 -1341 1 -2975 -2 l-2970 -5 -107 -268
c-615 -1534 -951 -2911 -1027 -4207 -33 -553 -16 -1279 44 -1930 235 -2529
1096 -4841 2515 -6750 523 -702 1163 -1386 1850 -1975 1202 -1031 2723 -1871
4315 -2384 1667 -537 3402 -730 5200 -581 3790 316 7181 2217 9330 5230 374
524 692 1055 994 1660 511 1024 871 2074 1095 3200 185 929 260 1705 260 2695
0 537 -6 688 -45 1120 -117 1297 -466 2677 -1021 4040 l-74 180 -2064 0
c-1136 0 -2496 -1 -3023 -2z"/>
<path d="M34628 23131 c-630 -113 -1150 -209 -1153 -213 -4 -4 10 -104 31
-223 36 -204 39 -216 59 -211 65 16 1488 267 1491 263 3 -2 -295 -273 -661
-602 -367 -329 -669 -604 -672 -612 -6 -14 67 -446 78 -464 4 -8 2335 403
2344 413 3 4 -73 429 -78 434 -2 2 -352 -59 -778 -135 -425 -77 -775 -138
-777 -137 -1 2 310 281 691 620 l694 617 -18 97 c-10 53 -28 157 -40 230 -21
120 -25 132 -44 131 -11 -1 -536 -94 -1167 -208z"/>
<path d="M2877 22453 c-20 -136 -49 -395 -44 -400 4 -3 350 -50 770 -103 421
-54 772 -100 782 -102 10 -1 -362 -173 -826 -382 -464 -208 -847 -382 -851
-385 -5 -5 -51 -334 -61 -441 l-2 -25 1180 -151 c649 -83 1181 -150 1183 -149
5 4 56 434 52 439 -3 2 -345 48 -760 101 -415 53 -756 98 -758 100 -6 6 30 22
861 400 433 196 787 362 787 369 0 6 14 112 30 236 16 123 27 226 25 228 -3 4
-2328 302 -2351 302 -6 0 -14 -17 -17 -37z"/>
<path d="M34995 20792 c-649 -47 -1182 -87 -1184 -88 -6 -5 28 -466 34 -473 7
-7 2358 160 2367 169 9 7 -21 462 -31 471 -3 3 -537 -33 -1186 -79z"/>
<path d="M35065 19691 c-649 -213 -1185 -389 -1192 -391 -7 -4 -13 -83 -18
-261 l-8 -255 1177 -458 c648 -252 1179 -456 1181 -454 3 2 8 117 11 254 l7
250 -871 314 c-479 173 -866 318 -859 321 7 4 406 129 887 279 481 150 876
273 876 274 1 0 4 117 8 259 5 204 4 257 -6 256 -7 0 -544 -175 -1193 -388z"/>
<path d="M2637 19973 c-4 -38 -7 -146 -7 -240 l0 -173 83 0 c45 0 579 -11
1186 -26 606 -14 1105 -23 1107 -21 9 9 17 477 8 477 -5 0 -481 11 -1059 25
-577 14 -1109 25 -1181 25 l-131 0 -6 -67z"/>
<path d="M3755 19078 c-632 -61 -1153 -113 -1156 -117 -7 -8 60 -704 69 -712
4 -3 374 -65 822 -139 448 -73 817 -134 819 -136 2 -2 -2 -6 -10 -9 -8 -3
-360 -133 -782 -289 -423 -156 -770 -286 -772 -288 -3 -3 64 -710 68 -714 2
-2 2372 223 2372 225 0 1 -9 99 -20 218 -12 127 -24 218 -31 220 -6 2 -417
-35 -914 -82 -496 -47 -907 -84 -911 -83 -5 2 392 145 882 318 490 173 894
317 899 320 6 4 0 101 -13 235 l-22 229 -950 146 c-688 106 -939 148 -910 152
22 4 438 44 925 89 487 46 886 84 888 85 2 1 -6 98 -17 216 -12 118 -21 217
-21 221 0 11 5 11 -1215 -105z"/>
<path d="M33786 17761 c-72 -400 -286 -1695 -281 -1700 10 -10 379 -70 386
-62 3 3 55 296 114 651 60 355 110 647 112 649 4 5 626 -98 633 -105 3 -3 -38
-256 -89 -562 -52 -306 -97 -571 -99 -587 l-4 -31 193 -32 c106 -18 195 -29
199 -25 4 4 51 269 105 588 53 319 98 581 99 582 3 4 507 -85 513 -90 3 -4
-42 -289 -100 -634 -59 -345 -105 -628 -104 -630 7 -6 397 -70 397 -64 0 3 65
394 146 869 80 475 144 865 142 867 -2 3 -524 92 -1159 200 -635 107 -1162
197 -1171 199 -13 3 -19 -12 -32 -83z"/>
<path d="M4095 16350 c-627 -136 -1139 -252 -1139 -256 15 -98 101 -463 109
-461 5 2 529 116 1163 252 929 201 1152 252 1152 264 0 9 -21 114 -47 234 -46
215 -47 217 -72 216 -14 -1 -539 -113 -1166 -249z"/>
<path d="M33435 15807 c-7 -23 -138 -422 -142 -433 -3 -7 171 -69 459 -164
255 -83 467 -155 472 -160 11 -11 -37 -156 -80 -242 -79 -158 -127 -180 -799
-368 -198 -55 -368 -103 -377 -106 -12 -3 -43 -84 -107 -276 -50 -150 -90
-273 -88 -274 6 -5 796 198 872 226 109 39 221 97 294 153 97 76 89 76 79 5
-12 -83 -3 -249 18 -318 57 -192 197 -336 397 -408 143 -52 256 -62 385 -36
124 24 213 72 299 159 121 123 169 235 395 919 103 313 188 575 188 582 0 7
-41 26 -92 43 -140 45 -2141 701 -2156 706 -7 3 -14 -1 -17 -8z m1461 -972
c148 -48 271 -89 273 -90 6 -7 -200 -620 -230 -682 -55 -115 -169 -184 -277
-168 -160 24 -267 121 -279 252 -7 77 24 204 128 520 45 136 84 252 86 256 3
5 11 6 18 3 7 -2 134 -44 281 -91z"/>
<path d="M4311 15426 c-619 -204 -1126 -376 -1128 -382 -6 -19 137 -444 150
-444 7 0 204 63 439 140 234 77 431 140 437 140 11 0 305 -879 297 -888 -3 -2
-202 -69 -443 -149 -241 -80 -439 -146 -440 -147 -2 -1 31 -105 73 -230 48
-142 80 -226 88 -223 6 2 514 170 1129 373 783 258 1117 372 1117 382 0 23
-141 442 -148 442 -4 0 -227 -72 -495 -161 -269 -88 -490 -159 -492 -157 -10
11 -291 884 -286 890 3 3 226 79 494 168 318 105 487 166 484 173 -2 7 -37
110 -76 230 -40 119 -73 217 -74 216 -1 0 -508 -168 -1126 -373z"/>
<path d="M32988 13530 c-302 -36 -530 -229 -713 -605 -102 -210 -145 -370
-145 -533 0 -118 22 -209 72 -311 34 -69 60 -104 133 -177 76 -78 104 -98 185
-138 135 -66 240 -90 360 -83 254 15 399 118 774 549 198 228 291 300 388 300
66 0 129 -38 157 -95 48 -99 16 -279 -77 -434 -61 -103 -105 -148 -177 -184
-62 -30 -68 -31 -162 -26 -54 3 -107 8 -119 12 -19 6 -29 -13 -118 -209 -54
-118 -95 -219 -92 -224 3 -5 45 -22 93 -38 79 -26 101 -29 218 -29 114 1 140
4 212 28 204 68 377 243 519 524 108 213 151 384 141 561 -12 221 -135 416
-323 514 -120 62 -165 73 -299 73 -108 0 -128 -3 -206 -31 -48 -17 -120 -53
-160 -79 -90 -60 -266 -234 -457 -453 -206 -234 -286 -287 -400 -264 -165 34
-258 223 -208 423 25 99 99 239 168 313 120 132 287 174 485 123 l52 -14 57
146 c31 80 69 178 85 216 15 39 24 73 21 77 -24 24 -320 83 -384 77 -7 -1 -43
-5 -80 -9z"/>
<path d="M5700 13453 c-78 -5 -220 -26 -220 -32 0 -11 81 -475 83 -477 1 -1
31 4 67 12 77 16 236 18 300 3 58 -13 147 -58 200 -100 23 -19 63 -66 89 -104
131 -196 130 -433 -3 -619 -168 -236 -655 -486 -945 -486 -254 0 -484 197
-537 463 -31 150 14 299 123 417 l55 60 -57 68 c-32 37 -103 120 -159 184
l-101 117 -53 -52 c-114 -112 -198 -252 -238 -397 -26 -94 -26 -337 0 -440 68
-269 237 -533 440 -687 77 -58 238 -135 341 -164 124 -33 355 -38 495 -9 144
29 261 70 415 145 450 219 699 533 744 938 49 434 -236 935 -622 1095 -111 47
-286 74 -417 65z"/>
<path d="M31630 11713 c-58 -92 -115 -183 -127 -204 l-23 -37 1000 -637 c550
-350 1005 -635 1011 -633 6 2 66 91 134 198 95 149 121 198 112 206 -12 11
-1996 1274 -2000 1274 -1 -1 -49 -76 -107 -167z"/>
<path d="M6820 11379 c-273 -35 -599 -211 -847 -457 -187 -185 -296 -380 -339
-608 -24 -131 -15 -338 20 -457 70 -237 192 -433 385 -620 153 -149 281 -222
468 -269 127 -32 379 -32 506 0 242 61 506 216 722 423 225 217 334 428 365
708 32 288 -79 598 -319 885 -247 298 -599 442 -961 395z m354 -489 c134 -34
252 -114 337 -228 136 -183 169 -373 103 -582 -65 -207 -302 -444 -579 -581
-284 -140 -539 -115 -741 74 -172 160 -255 371 -225 567 29 187 158 371 374
533 271 204 508 274 731 217z"/>
<path d="M30839 10585 c-79 -102 -145 -189 -146 -193 -1 -4 337 -269 750 -589
414 -321 765 -593 781 -606 l29 -24 -216 -277 -216 -278 27 -22 c83 -68 293
-228 296 -225 1 2 259 335 572 739 314 404 573 740 577 747 5 7 -49 56 -149
134 l-157 123 -27 -32 c-15 -18 -112 -142 -216 -277 -104 -134 -191 -244 -194
-245 -3 0 -352 269 -776 599 -424 329 -776 601 -781 604 -6 4 -75 -77 -154
-178z"/>
<path d="M7831 8923 l-830 -848 170 -170 171 -170 328 335 329 335 88 -85
c130 -125 583 -573 583 -577 0 -2 -147 -153 -326 -335 l-325 -332 170 -170
171 -171 84 85 c46 47 422 431 837 854 l753 769 -174 167 -173 167 -276 -281
c-152 -155 -314 -320 -360 -368 -47 -49 -88 -88 -92 -88 -9 0 -662 638 -667
651 -2 5 158 174 355 375 197 201 359 369 361 373 2 7 -331 331 -341 331 -3 0
-379 -381 -836 -847z"/>
<path d="M29527 9112 l-168 -168 22 -20 c12 -10 169 -170 350 -355 l329 -336
170 -798 c94 -439 172 -800 173 -801 1 -2 91 85 199 192 l196 196 -133 524
c-99 391 -129 524 -119 524 8 0 244 -61 525 -136 280 -74 514 -134 519 -132
22 7 401 381 393 388 -4 4 -361 90 -792 191 l-783 184 -351 358 c-192 196
-353 357 -356 357 -3 0 -82 -76 -174 -168z"/>
<path d="M28466 7069 c-78 -19 -164 -70 -224 -133 -93 -97 -132 -193 -132
-326 0 -133 39 -229 132 -326 179 -187 466 -194 658 -17 94 87 150 214 150
343 0 184 -105 346 -276 427 -68 33 -86 36 -172 39 -54 2 -115 -1 -136 -7z"/>
<path d="M10663 6775 c-83 -23 -152 -63 -214 -124 -215 -216 -176 -564 83
-732 32 -20 86 -44 122 -54 85 -23 218 -17 298 14 117 45 224 152 269 268 31
80 37 219 14 299 -70 245 -330 394 -572 329z"/>
<path d="M26110 6610 c-134 -64 -204 -103 -202 -111 2 -8 132 -284 289 -614
430 -901 438 -920 431 -1050 -3 -65 -10 -91 -33 -134 -80 -146 -301 -266 -491
-266 -84 0 -95 2 -166 38 -93 46 -135 91 -209 225 -30 54 -194 392 -364 750
-171 359 -313 652 -317 652 -10 0 -411 -190 -421 -199 -7 -7 408 -891 590
-1256 189 -380 293 -509 483 -599 206 -98 432 -89 720 29 327 133 527 289 625
488 105 213 99 381 -26 693 -87 217 -677 1454 -693 1453 -6 0 -103 -45 -216
-99z"/>
<path d="M12610 5334 c-245 -603 -445 -1101 -445 -1106 0 -8 435 -192 440
-185 1 1 89 217 196 480 174 429 196 478 214 474 27 -6 838 -336 847 -345 4
-4 -81 -223 -188 -486 -106 -264 -193 -480 -191 -482 11 -10 438 -176 443
-172 5 6 882 2159 891 2188 3 12 -46 36 -216 105 -121 49 -222 87 -225 84 -2
-2 -81 -195 -176 -429 -95 -234 -174 -427 -176 -429 -4 -4 -854 338 -866 348
-4 4 71 200 167 436 96 236 171 432 167 436 -6 6 -425 179 -434 179 -2 0 -203
-493 -448 -1096z"/>
<path d="M23898 5677 c-120 -39 -218 -76 -218 -82 0 -13 729 -2247 736 -2254
6 -6 454 141 454 149 -1 24 -738 2254 -745 2256 -6 1 -108 -30 -227 -69z"/>
<path d="M15863 5385 c-422 -77 -724 -381 -867 -877 -152 -528 -72 -956 238
-1263 133 -132 291 -218 497 -269 368 -92 680 -26 910 191 96 92 147 154 209
257 34 56 39 71 28 81 -18 17 -393 235 -404 235 -5 0 -24 -28 -42 -63 -109
-204 -277 -317 -471 -317 -250 0 -453 152 -528 395 -29 97 -24 332 11 500 52
247 128 430 230 551 51 61 168 136 247 159 77 23 219 25 299 6 219 -53 369
-221 395 -439 l7 -62 245 0 245 0 -7 63 c-32 296 -149 505 -370 663 -221 157
-597 239 -872 189z"/>
<path d="M17665 5037 c-4 -11 -95 -2370 -92 -2374 1 0 102 -4 225 -8 186 -7
222 -5 222 6 0 74 71 1823 74 1826 2 3 7 -8 10 -24 3 -15 91 -432 196 -927
104 -494 191 -900 193 -903 5 -5 458 -26 462 -21 1 2 120 408 265 903 145 495
267 907 272 915 5 9 6 -23 3 -80 -10 -186 -67 -1751 -63 -1755 2 -2 103 -7
224 -11 l219 -7 46 1189 c25 654 45 1190 45 1191 -4 6 -712 29 -718 24 -4 -4
-116 -362 -248 -796 -132 -433 -242 -790 -244 -792 -5 -5 -5 -5 -196 847 -95
421 -175 768 -179 772 -3 4 -128 12 -276 17 -149 6 -307 13 -353 15 -59 4 -84
2 -87 -7z"/>
<path d="M22111 3918 c-239 -37 -437 -70 -439 -73 -5 -4 58 -436 64 -444 4 -4
876 130 883 135 5 4 -60 426 -68 440 -4 8 -139 -10 -440 -58z"/>
</g>
</svg>
